<svg version="1.1" id="Layer_1" xmlns="http://www.w3.org/2000/svg" xmlns:xlink="http://www.w3.org/1999/xlink" x="0px" y="0px"
	 width="100%" viewBox="0 0 210 208" enable-background="new 0 0 210 208" xml:space="preserve">
<path fill="#3155A0" opacity="1.000000" stroke="none" 
	d="
M134.000000,209.000000 
	C89.333336,209.000000 45.166672,209.000000 1.000006,209.000000 
	C1.000004,139.666672 1.000004,70.333344 1.000002,1.000015 
	C70.999992,1.000010 140.999985,1.000010 210.999969,1.000005 
	C210.999985,70.333321 210.999985,139.666641 211.000000,208.999969 
	C185.500000,209.000000 160.000000,209.000000 134.000000,209.000000 
M166.634186,63.868011 
	C166.351898,63.739044 166.090805,63.758621 165.288666,63.574963 
	C163.808975,63.308620 162.329300,63.042278 160.398544,62.195698 
	C159.926926,62.112335 159.455322,62.028973 158.607834,61.684761 
	C158.304260,61.556355 158.008331,61.572018 157.295288,61.292397 
	C156.521164,61.134922 155.747055,60.977444 154.348007,60.454071 
	C153.873413,60.388081 153.398804,60.322086 152.375580,59.825497 
	C151.244934,59.606022 150.114273,59.386543 148.464035,58.761883 
	C147.614304,58.602299 146.764572,58.442711 145.499496,57.955784 
	C144.989075,57.860256 144.478668,57.764729 143.356491,57.295551 
	C142.883163,57.262928 142.409821,57.230305 141.509659,56.870022 
	C140.997681,56.739456 140.485718,56.608891 139.590164,56.212833 
	C138.831985,56.150551 138.073792,56.088268 136.866440,55.562000 
	C136.254608,55.437023 135.642761,55.312046 134.506577,54.946632 
	C133.943802,54.896133 133.381042,54.845634 132.363953,54.265331 
	C131.912674,54.200317 131.461395,54.135300 130.946259,53.980835 
	C130.946259,53.980835 130.856750,54.044617 130.333847,53.757538 
	C129.569641,53.577110 128.805450,53.396683 127.362465,52.912975 
	C126.165314,52.632343 124.968163,52.351707 123.593369,51.848564 
	C123.302757,51.711048 123.033195,51.730099 122.489082,51.667782 
	C122.219666,51.519585 121.992920,51.568645 121.362465,51.266075 
	C120.908485,51.185177 120.454498,51.104279 119.989006,50.981705 
	C119.989006,50.981705 119.959999,51.013763 119.807259,50.790581 
	C119.617867,50.686337 119.456131,50.718945 118.791939,50.581413 
	C117.442123,50.292645 116.092316,50.003876 114.304329,49.287907 
	C113.528168,49.136101 112.751999,48.984295 111.346130,48.459194 
	C110.865463,48.411121 110.384804,48.363052 109.346794,47.926750 
	C107.607353,48.052559 105.867920,48.178364 103.389282,48.273720 
	C102.936485,48.456318 102.483688,48.638916 101.429123,48.719864 
	C100.700508,49.048668 99.971893,49.377468 98.572510,49.609951 
	C97.047867,50.083542 95.523224,50.557137 93.297028,51.024033 
	C92.934547,51.295238 92.572067,51.566444 91.655434,51.656662 
	C91.100197,51.812618 90.544960,51.968575 89.318306,52.108395 
	C88.965233,52.362873 88.612152,52.617348 87.681435,52.729370 
	C87.114799,52.890015 86.548164,53.050655 85.347267,53.203804 
	C85.008385,53.441944 84.669502,53.680084 83.881874,53.773331 
	C83.556396,53.778358 83.261543,53.875927 82.299141,54.049187 
	C81.929802,54.304459 81.560471,54.559727 80.631111,54.683395 
	C80.083107,54.847935 79.535095,55.012478 78.341927,55.134090 
	C77.781609,55.432709 77.221298,55.731323 76.220100,55.906887 
	C75.488876,56.095852 74.757660,56.284821 73.489540,56.461838 
	C73.017944,56.707355 72.546349,56.952877 71.353737,57.162106 
	C70.912643,57.333973 70.471542,57.505840 69.507645,57.630344 
	C69.039551,57.849808 68.571449,58.069275 67.443352,58.230408 
	C66.634315,58.542458 65.825279,58.854507 64.319878,59.104965 
	C63.243698,59.488659 62.167515,59.872353 60.361225,60.266850 
	C59.915123,60.450676 59.469021,60.634502 58.425354,60.727665 
	C57.713665,61.063854 57.001980,61.400040 55.844944,61.605209 
	C55.516151,61.605244 55.237358,61.723324 54.282661,61.950081 
	C53.912693,62.235321 53.542725,62.520561 52.551258,62.587540 
	C51.091290,63.031841 49.631317,63.476143 47.937031,63.772392 
	C47.635330,63.740105 47.396812,63.837444 46.437271,64.067429 
	C39.191017,65.829216 33.054455,68.896301 32.995926,77.586983 
	C32.865852,96.900475 32.857994,116.216278 33.017803,135.529343 
	C33.066608,141.427826 36.267982,145.623932 41.879242,147.561020 
	C45.155109,148.691879 48.613853,149.292999 52.558689,150.541138 
	C64.460892,153.755219 76.363091,156.969299 88.819862,160.700409 
	C89.551140,160.823410 90.282410,160.946426 91.360199,161.314972 
	C91.360199,161.314972 91.772202,161.418030 91.772202,161.418030 
	C91.772202,161.418030 92.186729,161.325668 92.616348,161.769348 
	C93.404205,161.902527 94.192062,162.035706 95.624680,162.535950 
	C96.105209,162.630096 96.585747,162.724243 97.671043,163.208908 
	C101.739746,163.707947 105.808441,164.206985 110.622749,164.742538 
	C111.080025,164.559677 111.537300,164.376816 112.642746,164.261780 
	C114.071297,163.779953 115.499847,163.298126 117.673164,162.771118 
	C118.124878,162.567047 118.576584,162.362976 119.628357,162.254120 
	C120.358368,161.945602 121.088371,161.637070 122.231216,161.420898 
	C122.526474,161.399918 122.778526,161.284546 123.478951,161.175735 
	C124.234612,160.856140 124.990273,160.536560 126.186775,160.311508 
	C126.499084,160.294266 126.774307,160.184250 127.798111,160.022293 
	C130.776566,159.084442 133.755020,158.146591 137.407333,157.238068 
	C138.267853,157.000854 139.128357,156.763626 140.719528,156.446548 
	C143.457230,155.582764 146.194931,154.718994 149.657730,153.863297 
	C150.100708,153.682938 150.543671,153.502563 151.508301,153.424713 
	C151.973953,153.198456 152.439606,152.972214 153.642349,152.737427 
	C154.092453,152.550644 154.542557,152.363846 155.713623,152.227890 
	C158.747879,151.251129 161.782135,150.274384 165.124908,149.457993 
	C165.379272,149.450470 165.572708,149.338104 165.982117,149.251328 
	C166.306747,149.268585 166.577133,149.164734 166.908340,149.017731 
	C166.908340,149.017731 166.986343,148.902695 167.556503,148.937515 
	C167.847763,148.710922 168.139023,148.484314 168.309555,148.271240 
	C168.309555,148.271240 168.327194,148.391434 169.071213,148.350388 
	C174.238174,146.810272 178.569168,144.306854 180.684128,138.147018 
	C180.744095,137.438538 180.804047,136.730072 181.024719,135.093628 
	C180.969650,115.727249 180.914581,96.360878 180.972198,76.498566 
	C180.912003,76.340096 180.851791,76.181618 180.768356,75.177780 
	C180.535965,74.667397 180.303574,74.157013 180.206497,73.494164 
	C180.206497,73.494164 179.965714,73.217026 179.903854,72.502892 
	C178.910889,71.205452 177.917923,69.908020 176.633713,68.060654 
	C174.008545,66.991112 171.383392,65.921570 168.307007,64.330765 
	C167.863968,64.256332 167.420914,64.181892 166.910385,64.010002 
	C166.910385,64.010002 166.813095,64.077698 166.634186,63.868011 
z"/>
<path fill="#E9EFF5" opacity="1.000000" stroke="none" 
	d="
M111.994568,164.193939 
	C111.537300,164.376816 111.080025,164.559677 109.905502,164.580811 
	C105.147591,163.885513 101.106934,163.351944 97.066277,162.818390 
	C96.585747,162.724243 96.105209,162.630096 95.071991,162.160248 
	C93.741783,161.631577 92.964256,161.478607 92.186729,161.325653 
	C92.186729,161.325668 91.772202,161.418030 91.772202,161.418030 
	C91.772202,161.418030 91.360199,161.314972 90.873596,161.006454 
	C89.679764,160.526428 88.972527,160.354904 88.265289,160.183380 
	C76.363091,156.969299 64.460892,153.755219 52.279541,149.962646 
	C51.994068,148.635681 51.987747,147.887207 52.287369,147.027451 
	C52.999332,146.763718 53.405357,146.611267 54.098335,146.729218 
	C57.900921,147.971420 61.416546,148.943237 65.272995,150.085236 
	C72.793823,152.374573 80.208565,153.919052 87.103775,156.735428 
	C100.459869,162.190811 113.526703,162.311951 126.733475,156.669952 
	C127.643608,156.281128 128.654510,156.131912 129.612701,155.851349 
	C140.763977,152.586121 151.914108,149.317062 163.409882,146.021988 
	C164.445450,145.975479 165.135681,145.956009 166.151154,146.091217 
	C167.093338,146.961075 167.710266,147.676254 168.327194,148.391434 
	C168.327194,148.391434 168.309555,148.271240 168.113373,148.340729 
	C167.606918,148.574371 167.296631,148.738525 166.986343,148.902695 
	C166.986343,148.902695 166.908340,149.017731 166.578003,149.017426 
	C166.066864,149.051697 165.886047,149.086273 165.705215,149.120865 
	C165.572708,149.338104 165.379272,149.450470 164.542145,149.380478 
	C160.970474,150.261002 157.981567,151.219040 154.992661,152.177063 
	C154.542557,152.363846 154.092453,152.550644 153.100891,152.652298 
	C152.035187,152.818848 151.510910,153.070526 150.986649,153.322205 
	C150.543671,153.502563 150.100708,153.682938 149.003052,153.750397 
	C145.561859,154.600464 142.775375,155.563446 139.988876,156.526413 
	C139.128357,156.763626 138.267853,157.000854 136.627045,157.191406 
	C132.901993,158.090317 129.957230,159.035904 127.012459,159.981476 
	C126.774307,160.184250 126.499084,160.294266 125.597511,160.291672 
	C124.334625,160.539490 123.661003,160.807144 122.987381,161.074799 
	C122.778526,161.284546 122.526474,161.399918 121.716385,161.349915 
	C120.477142,161.572250 119.752716,161.865585 119.028290,162.158905 
	C118.576584,162.362976 118.124878,162.567047 117.049118,162.690247 
	C114.948242,163.137558 113.471405,163.665756 111.994568,164.193939 
z"/>
<path fill="#EAF5FB" opacity="1.000000" stroke="none" 
	d="
M51.981426,147.138733 
	C51.987747,147.887207 51.994068,148.635681 51.995358,149.758301 
	C48.613853,149.292999 45.155109,148.691879 41.879242,147.561020 
	C36.267982,145.623932 33.066608,141.427826 33.017803,135.529343 
	C32.857994,116.216278 32.865852,96.900475 32.995926,77.586983 
	C33.054455,68.896301 39.191017,65.829216 47.068840,64.044540 
	C47.700405,64.021652 48.171349,63.920444 48.171349,63.920444 
	C49.631317,63.476143 51.091290,63.031841 53.186089,62.593079 
	C54.216797,62.385559 54.612682,62.172501 55.008564,61.959442 
	C55.237358,61.723324 55.516151,61.605244 56.371613,61.689232 
	C57.606491,61.454945 58.314705,61.136639 59.022915,60.818333 
	C59.469021,60.634502 59.915123,60.450676 60.912903,60.443207 
	C61.971127,61.305012 62.477669,61.990467 62.729691,62.824917 
	C62.088848,63.018341 61.702522,63.062767 61.090782,63.149551 
	C60.568310,63.277203 60.294567,63.410400 59.749077,63.722656 
	C57.731770,64.226875 56.009525,64.599937 53.982204,65.018463 
	C53.123096,65.310898 52.569061,65.557854 51.643730,65.948921 
	C50.319618,66.389633 49.385414,66.786362 48.411125,66.967422 
	C38.263573,68.853180 36.194336,71.266808 36.187408,81.367477 
	C36.177353,96.028793 36.228291,110.690323 36.162949,125.351357 
	C36.092121,141.244171 35.216057,142.706558 51.981426,147.138733 
z"/>
<path fill="#EAF5FB" opacity="1.000000" stroke="none" 
	d="
M168.699203,148.370911 
	C167.710266,147.676254 167.093338,146.961075 166.256775,145.722244 
	C166.063568,144.944000 166.089966,144.689423 166.497498,144.594208 
	C174.084229,144.920105 177.757874,141.401794 177.786560,133.974030 
	C177.855118,116.224792 177.943420,98.473366 177.700638,80.727242 
	C177.655411,77.422668 176.101425,74.138733 175.666626,70.288544 
	C176.367981,69.358063 176.646469,68.984322 176.924957,68.610580 
	C177.917923,69.908020 178.910889,71.205452 179.935013,72.934830 
	C179.966171,73.366768 180.071182,73.646629 180.071182,73.646629 
	C180.303574,74.157013 180.535965,74.667397 180.719391,75.718445 
	C180.610596,76.534485 180.673615,76.779617 180.859512,76.994499 
	C180.914581,96.360878 180.969650,115.727249 180.791458,135.869385 
	C180.438965,137.327591 180.319717,138.010025 180.200485,138.692459 
	C178.569168,144.306854 174.238174,146.810272 168.699203,148.370911 
z"/>
<path fill="#EAF5FB" opacity="1.000000" stroke="none" 
	d="
M70.030449,57.677711 
	C70.471542,57.505840 70.912643,57.333973 71.896164,57.277512 
	C72.967865,57.086544 73.497147,56.780163 74.026436,56.473785 
	C74.757660,56.284821 75.488876,56.095852 76.754715,55.920414 
	C77.855247,55.681633 78.421165,55.429325 78.987091,55.177017 
	C79.535095,55.012478 80.083107,54.847935 81.226273,54.655670 
	C82.213402,54.440643 82.605362,54.253342 82.997314,54.066040 
	C83.261543,53.875927 83.556396,53.778358 84.396332,53.761345 
	C85.267700,53.570004 85.624611,53.390648 85.981529,53.211296 
	C86.548164,53.050655 87.114799,52.890015 88.274673,52.711380 
	C89.241844,52.503769 89.615784,52.314152 89.989723,52.124527 
	C90.544960,51.968575 91.100197,51.812618 92.248154,51.649704 
	C93.226776,51.438740 93.612679,51.234734 93.998581,51.030731 
	C95.523224,50.557137 97.047867,50.083542 99.216995,49.684006 
	C100.584618,49.445877 101.307755,49.133698 102.030891,48.821514 
	C102.483688,48.638916 102.936485,48.456318 104.058090,48.430557 
	C106.452652,48.496590 108.178391,48.405785 109.904137,48.314980 
	C110.384804,48.363052 110.865463,48.411121 111.885834,48.845200 
	C113.197861,49.392509 113.970184,49.553806 114.742500,49.715107 
	C116.092316,50.003876 117.442123,50.292645 119.158089,50.774796 
	C119.524239,50.968174 119.959999,51.013763 119.959999,51.013763 
	C119.959999,51.013763 119.989006,50.981705 120.277122,51.172787 
	C120.979774,51.514233 121.394310,51.664597 121.808846,51.814960 
	C121.992920,51.568645 122.219666,51.519585 122.881348,51.843178 
	C123.439415,52.036076 123.605217,52.053577 123.771011,52.071075 
	C124.968163,52.351707 126.165314,52.632343 127.953201,53.228226 
	C129.314880,53.710526 130.085815,53.877571 130.856750,54.044617 
	C130.856750,54.044617 130.946259,53.980835 131.264038,54.179306 
	C131.993973,54.516895 132.406113,54.656017 132.818268,54.795135 
	C133.381042,54.845634 133.943802,54.896133 135.027756,55.229282 
	C136.137833,55.683285 136.726715,55.854633 137.315613,56.025986 
	C138.073792,56.088268 138.831985,56.150551 139.871262,56.537170 
	C140.747070,56.973564 141.341782,57.085625 141.936493,57.197685 
	C142.409821,57.230305 142.883163,57.262928 143.761688,57.657436 
	C144.749542,58.107258 145.332199,58.195194 145.914841,58.283127 
	C146.764572,58.442711 147.614304,58.602299 148.659241,59.236561 
	C148.581207,60.403027 148.307968,61.094814 147.661072,61.798599 
	C142.855270,60.512600 138.423141,59.214607 133.717896,57.752827 
	C133.045776,57.441101 132.646744,57.293163 132.039871,57.231895 
	C131.517624,57.315914 131.241013,57.212368 130.698578,56.827782 
	C129.708740,56.487343 129.022491,56.327045 128.106995,56.221867 
	C127.551582,56.269958 127.258568,56.167820 126.708900,55.813339 
	C126.002365,55.512218 125.585640,55.368328 124.894669,55.307167 
	C124.076637,55.222050 123.532852,55.054207 122.720207,54.726418 
	C121.848045,54.422375 121.244736,54.278275 120.355682,54.136223 
	C119.708466,54.022419 119.346992,53.906563 118.715088,53.650818 
	C118.056175,53.389492 117.667694,53.268055 117.048599,53.205856 
	C111.556793,52.847321 106.295586,52.429550 100.862968,52.046242 
	C100.466293,52.152981 100.267693,52.270367 99.896561,52.574989 
	C98.902901,52.804333 98.108421,52.891552 97.005905,53.021332 
	C96.137100,53.307648 95.576324,53.551399 94.751625,53.904869 
	C94.111153,54.053669 93.734604,54.092751 93.045509,54.155197 
	C92.158813,54.414787 91.584663,54.651020 90.751457,55.011963 
	C89.935402,55.161697 89.378403,55.186722 88.505051,55.307259 
	C87.792938,55.591644 87.397179,55.780514 86.644791,56.127026 
	C79.515587,58.117813 72.743034,59.950954 65.849380,61.531757 
	C65.490936,60.575130 65.253593,59.870842 65.016243,59.166557 
	C65.825279,58.854507 66.634315,58.542458 67.947197,58.351906 
	C68.977509,58.208172 69.503983,57.942944 70.030449,57.677711 
z"/>
<path fill="#EAF5FB" opacity="1.000000" stroke="none" 
	d="
M168.758224,64.852036 
	C171.383392,65.921570 174.008545,66.991112 176.779327,68.335617 
	C176.646469,68.984322 176.367981,69.358063 175.361481,70.159042 
	C173.087555,69.708229 171.541641,68.830177 169.704742,67.781586 
	C168.758759,67.455864 168.103775,67.300682 167.197495,67.178253 
	C166.628387,67.105499 166.310562,66.999992 165.710938,66.742859 
	C165.023300,66.455261 164.617493,66.319283 163.927032,66.231285 
	C163.090164,66.121307 162.537949,65.963348 161.727814,65.644547 
	C160.884842,65.313156 160.299789,65.142609 159.441467,65.013519 
	C157.431274,64.566010 155.694336,64.077034 153.758530,63.471123 
	C153.278625,63.219898 152.983002,63.138718 152.379944,63.121819 
	C151.730148,62.982838 151.373230,62.832687 151.121063,62.444435 
	C151.791962,61.556255 152.358078,60.906174 152.924194,60.256096 
	C153.398804,60.322086 153.873413,60.388081 154.883698,60.836567 
	C156.186264,61.389961 156.953140,61.560856 157.720016,61.731754 
	C158.008331,61.572018 158.304260,61.556355 159.087112,61.992935 
	C159.994125,62.459389 160.421875,62.617664 160.849609,62.775940 
	C162.329300,63.042278 163.808975,63.308620 165.808304,63.803040 
	C166.327942,64.031113 166.813095,64.077698 166.813095,64.077698 
	C166.813095,64.077698 166.910385,64.010002 167.224823,64.216614 
	C167.945587,64.566162 168.351898,64.709099 168.758224,64.852036 
z"/>
<path fill="#E2EDF6" opacity="1.000000" stroke="none" 
	d="
M97.368660,163.013641 
	C101.106934,163.351944 105.147591,163.885513 109.532700,164.562546 
	C105.808441,164.206985 101.739746,163.707947 97.368660,163.013641 
z"/>
<path fill="#E2EDF6" opacity="1.000000" stroke="none" 
	d="
M140.354202,156.486481 
	C142.775375,155.563446 145.561859,154.600464 148.640503,153.746353 
	C146.194931,154.718994 143.457230,155.582764 140.354202,156.486481 
z"/>
<path fill="#E2EDF6" opacity="1.000000" stroke="none" 
	d="
M155.353149,152.202484 
	C157.981567,151.219040 160.970474,150.261002 164.387878,149.300293 
	C161.782135,150.274384 158.747879,151.251129 155.353149,152.202484 
z"/>
<path fill="#E2EDF6" opacity="1.000000" stroke="none" 
	d="
M64.668060,59.135761 
	C65.253593,59.870842 65.490936,60.575130 65.601074,61.738602 
	C64.643982,62.357162 63.814098,62.516541 62.984211,62.675919 
	C62.477669,61.990467 61.971127,61.305012 61.277958,60.437805 
	C62.167515,59.872353 63.243698,59.488659 64.668060,59.135761 
z"/>
<path fill="#E2EDF6" opacity="1.000000" stroke="none" 
	d="
M152.649887,60.040794 
	C152.358078,60.906174 151.791962,61.556255 150.800201,62.480526 
	C149.594635,62.432011 148.814667,62.109306 148.034714,61.786598 
	C148.307968,61.094814 148.581207,60.403027 148.919037,59.439152 
	C150.114273,59.386543 151.244934,59.606022 152.649887,60.040794 
z"/>
<path fill="#E2EDF6" opacity="1.000000" stroke="none" 
	d="
M127.405289,160.001892 
	C129.957230,159.035904 132.901993,158.090317 136.290115,157.176743 
	C133.755020,158.146591 130.776566,159.084442 127.405289,160.001892 
z"/>
<path fill="#E2EDF6" opacity="1.000000" stroke="none" 
	d="
M109.625465,48.120865 
	C108.178391,48.405785 106.452652,48.496590 104.427689,48.445782 
	C105.867920,48.178364 107.607353,48.052559 109.625465,48.120865 
z"/>
<path fill="#E2EDF6" opacity="1.000000" stroke="none" 
	d="
M112.318665,164.227875 
	C113.471405,163.665756 114.948242,163.137558 116.676743,162.712830 
	C115.499847,163.298126 114.071297,163.779953 112.318665,164.227875 
z"/>
<path fill="#E2EDF6" opacity="1.000000" stroke="none" 
	d="
M101.730011,48.770691 
	C101.307755,49.133698 100.584618,49.445877 99.552383,49.732162 
	C99.971893,49.377468 100.700508,49.048668 101.730011,48.770691 
z"/>
<path fill="#E2EDF6" opacity="1.000000" stroke="none" 
	d="
M73.757988,56.467812 
	C73.497147,56.780163 72.967865,57.086544 72.256668,57.295658 
	C72.546349,56.952877 73.017944,56.707355 73.757988,56.467812 
z"/>
<path fill="#E2EDF6" opacity="1.000000" stroke="none" 
	d="
M141.723083,57.033852 
	C141.341782,57.085625 140.747070,56.973564 140.063049,56.669914 
	C140.485718,56.608891 140.997681,56.739456 141.723083,57.033852 
z"/>
<path fill="#E2EDF6" opacity="1.000000" stroke="none" 
	d="
M69.769043,57.654030 
	C69.503983,57.942944 68.977509,58.208172 68.277199,58.381073 
	C68.571449,58.069275 69.039551,57.849808 69.769043,57.654030 
z"/>
<path fill="#E2EDF6" opacity="1.000000" stroke="none" 
	d="
M145.707169,58.119453 
	C145.332199,58.195194 144.749542,58.107258 144.067566,57.844261 
	C144.478668,57.764729 144.989075,57.860256 145.707169,58.119453 
z"/>
<path fill="#E2EDF6" opacity="1.000000" stroke="none" 
	d="
M58.724136,60.772999 
	C58.314705,61.136639 57.606491,61.454945 56.594284,61.754738 
	C57.001980,61.400040 57.713665,61.063854 58.724136,60.772999 
z"/>
<path fill="#E2EDF6" opacity="1.000000" stroke="none" 
	d="
M157.507660,61.512077 
	C156.953140,61.560856 156.186264,61.389961 155.196167,61.019516 
	C155.747055,60.977444 156.521164,61.134922 157.507660,61.512077 
z"/>
<path fill="#E2EDF6" opacity="1.000000" stroke="none" 
	d="
M151.247467,153.373459 
	C151.510910,153.070526 152.035187,152.818848 152.732346,152.656555 
	C152.439606,152.972214 151.973953,153.198456 151.247467,153.373459 
z"/>
<path fill="#E2EDF6" opacity="1.000000" stroke="none" 
	d="
M92.401535,161.547501 
	C92.964256,161.478607 93.741783,161.631577 94.749611,161.976700 
	C94.192062,162.035706 93.404205,161.902527 92.401535,161.547501 
z"/>
<path fill="#E2EDF6" opacity="1.000000" stroke="none" 
	d="
M114.523415,49.501507 
	C113.970184,49.553806 113.197861,49.392509 112.200691,49.031845 
	C112.751999,48.984295 113.528168,49.136101 114.523415,49.501507 
z"/>
<path fill="#E2EDF6" opacity="1.000000" stroke="none" 
	d="
M119.328323,162.206512 
	C119.752716,161.865585 120.477142,161.572250 121.509972,161.303741 
	C121.088371,161.637070 120.358368,161.945602 119.328323,162.206512 
z"/>
<path fill="#E2EDF6" opacity="1.000000" stroke="none" 
	d="
M130.595306,53.901077 
	C130.085815,53.877571 129.314880,53.710526 128.292603,53.379868 
	C128.805450,53.396683 129.569641,53.577110 130.595306,53.901077 
z"/>
<path fill="#E2EDF6" opacity="1.000000" stroke="none" 
	d="
M123.233170,161.125275 
	C123.661003,160.807144 124.334625,160.539490 125.377090,160.244415 
	C124.990273,160.536560 124.234612,160.856140 123.233170,161.125275 
z"/>
<path fill="#E2EDF6" opacity="1.000000" stroke="none" 
	d="
M78.664505,55.155552 
	C78.421165,55.429325 77.855247,55.681633 76.975151,55.981941 
	C77.221298,55.731323 77.781609,55.432709 78.664505,55.155552 
z"/>
<path fill="#E2EDF6" opacity="1.000000" stroke="none" 
	d="
M180.442307,138.419739 
	C180.319717,138.010025 180.438965,137.327591 180.711105,136.333374 
	C180.804047,136.730072 180.744095,137.438538 180.442307,138.419739 
z"/>
<path fill="#E2EDF6" opacity="1.000000" stroke="none" 
	d="
M137.091034,55.793991 
	C136.726715,55.854633 136.137833,55.683285 135.289932,55.349503 
	C135.642761,55.312046 136.254608,55.437023 137.091034,55.793991 
z"/>
<path fill="#E2EDF6" opacity="1.000000" stroke="none" 
	d="
M88.542572,160.441895 
	C88.972527,160.354904 89.679764,160.526428 90.700348,160.883682 
	C90.282410,160.946426 89.551140,160.823410 88.542572,160.441895 
z"/>
<path fill="#E2EDF6" opacity="1.000000" stroke="none" 
	d="
M123.682190,51.959820 
	C123.605217,52.053577 123.439415,52.036076 123.029144,51.962143 
	C123.033195,51.730099 123.302757,51.711048 123.682190,51.959820 
z"/>
<path fill="#E2EDF6" opacity="1.000000" stroke="none" 
	d="
M93.647804,51.027382 
	C93.612679,51.234734 93.226776,51.438740 92.525230,51.740200 
	C92.572067,51.566444 92.934547,51.295238 93.647804,51.027382 
z"/>
<path fill="#E2EDF6" opacity="1.000000" stroke="none" 
	d="
M165.843658,149.186096 
	C165.886047,149.086273 166.066864,149.051697 166.520477,148.978455 
	C166.577133,149.164734 166.306747,149.268585 165.843658,149.186096 
z"/>
<path fill="#E2EDF6" opacity="1.000000" stroke="none" 
	d="
M82.648224,54.057613 
	C82.605362,54.253342 82.213402,54.440643 81.506287,54.721466 
	C81.560471,54.559727 81.929802,54.304459 82.648224,54.057613 
z"/>
<path fill="#E2EDF6" opacity="1.000000" stroke="none" 
	d="
M121.585655,51.540520 
	C121.394310,51.664597 120.979774,51.514233 120.282883,51.193626 
	C120.454498,51.104279 120.908485,51.185177 121.585655,51.540520 
z"/>
<path fill="#E2EDF6" opacity="1.000000" stroke="none" 
	d="
M167.271423,148.920105 
	C167.296631,148.738525 167.606918,148.574371 168.173737,148.333954 
	C168.139023,148.484314 167.847763,148.710922 167.271423,148.920105 
z"/>
<path fill="#E2EDF6" opacity="1.000000" stroke="none" 
	d="
M89.654015,52.116463 
	C89.615784,52.314152 89.241844,52.503769 88.563492,52.782608 
	C88.612152,52.617348 88.965233,52.362873 89.654015,52.116463 
z"/>
<path fill="#E2EDF6" opacity="1.000000" stroke="none" 
	d="
M85.664398,53.207550 
	C85.624611,53.390648 85.267700,53.570004 84.620697,53.833794 
	C84.669502,53.680084 85.008385,53.441944 85.664398,53.207550 
z"/>
<path fill="#E2EDF6" opacity="1.000000" stroke="none" 
	d="
M119.883629,50.902172 
	C119.959999,51.013763 119.524239,50.968174 119.423157,50.928291 
	C119.456131,50.718945 119.617867,50.686337 119.883629,50.902172 
z"/>
<path fill="#E2EDF6" opacity="1.000000" stroke="none" 
	d="
M54.645615,61.954762 
	C54.612682,62.172501 54.216797,62.385559 53.496834,62.702209 
	C53.542725,62.520561 53.912693,62.235321 54.645615,61.954762 
z"/>
<path fill="#E2EDF6" opacity="1.000000" stroke="none" 
	d="
M180.138840,73.570396 
	C180.071182,73.646629 179.966171,73.366768 179.965942,73.291901 
	C179.965714,73.217026 180.206497,73.494164 180.138840,73.570396 
z"/>
<path fill="#E2EDF6" opacity="1.000000" stroke="none" 
	d="
M168.532623,64.591400 
	C168.351898,64.709099 167.945587,64.566162 167.258575,64.265343 
	C167.420914,64.181892 167.863968,64.256332 168.532623,64.591400 
z"/>
<path fill="#E2EDF6" opacity="1.000000" stroke="none" 
	d="
M166.723633,63.972855 
	C166.813095,64.077698 166.327942,64.031113 166.089417,63.978928 
	C166.090805,63.758621 166.351898,63.739044 166.723633,63.972855 
z"/>
<path fill="#E2EDF6" opacity="1.000000" stroke="none" 
	d="
M180.915863,76.746536 
	C180.673615,76.779617 180.610596,76.534485 180.731018,76.141129 
	C180.851791,76.181618 180.912003,76.340096 180.915863,76.746536 
z"/>
<path fill="#E2EDF6" opacity="1.000000" stroke="none" 
	d="
M48.054192,63.846420 
	C48.171349,63.920444 47.700405,64.021652 47.460945,64.043030 
	C47.396812,63.837444 47.635330,63.740105 48.054192,63.846420 
z"/>
<path fill="#E2EDF6" opacity="1.000000" stroke="none" 
	d="
M160.624084,62.485817 
	C160.421875,62.617664 159.994125,62.459389 159.275055,62.123363 
	C159.455322,62.028973 159.926926,62.112335 160.624084,62.485817 
z"/>
<path fill="#E2EDF6" opacity="1.000000" stroke="none" 
	d="
M132.591110,54.530235 
	C132.406113,54.656017 131.993973,54.516895 131.295959,54.224030 
	C131.461395,54.135300 131.912674,54.200317 132.591110,54.530235 
z"/>
<path fill="#35599F" opacity="1.000000" stroke="none" 
	d="
M147.661072,61.798595 
	C148.814667,62.109306 149.594635,62.432011 150.695435,62.718628 
	C151.373230,62.832687 151.730148,62.982838 152.540390,63.312805 
	C152.993698,63.492619 153.463959,63.657402 153.463959,63.657402 
	C153.463959,63.657402 153.957382,63.588062 153.957382,63.588062 
	C155.694336,64.077034 157.431274,64.566010 159.666718,65.243713 
	C160.772049,65.556755 161.378891,65.681068 161.985733,65.805382 
	C162.537949,65.963348 163.090164,66.121307 164.154694,66.488419 
	C165.108917,66.763214 165.550842,66.828850 165.992752,66.894485 
	C166.310562,66.999992 166.628387,67.105499 167.459351,67.412064 
	C168.646896,67.726120 169.321320,67.839119 169.995728,67.952118 
	C171.541641,68.830177 173.087555,69.708229 174.938599,70.715782 
	C176.101425,74.138733 177.655411,77.422668 177.700638,80.727242 
	C177.943420,98.473366 177.855118,116.224792 177.786560,133.974030 
	C177.757874,141.401794 174.084229,144.920105 166.345490,144.327255 
	C163.841309,142.609360 161.870239,141.317764 159.878479,139.856445 
	C159.857788,139.686722 159.797638,139.350113 159.813217,138.913086 
	C159.851074,137.601532 159.873337,136.727020 159.882812,135.884399 
	C159.870041,135.916321 159.821869,135.867264 160.180084,135.714111 
	C161.008286,133.691299 161.874298,131.824173 161.886292,129.951584 
	C161.992767,113.318245 161.985657,96.683723 161.891464,80.050240 
	C161.881760,78.337379 161.086136,76.628983 160.262238,74.692001 
	C155.177704,74.436127 150.486145,74.406776 145.461060,74.551361 
	C144.535904,76.371033 143.944290,78.016769 143.349289,79.780746 
	C143.345917,79.898979 143.150009,80.031601 142.888138,80.134216 
	C142.408722,81.156914 142.191177,82.077003 141.955383,83.283630 
	C141.675522,84.064583 141.413879,84.559006 140.927094,85.300766 
	C140.538055,86.184822 140.374191,86.821541 140.183929,87.699158 
	C139.953934,88.376785 139.750336,88.813522 139.406281,89.271133 
	C138.999222,89.496155 138.967209,89.732445 139.105637,90.360001 
	C137.028931,95.616241 135.016357,100.513359 132.584824,106.429932 
	C128.461853,96.112656 124.823830,86.845833 121.011993,77.651054 
	C120.458488,76.315895 119.143356,74.416786 118.060303,74.332916 
	C113.338577,73.967323 108.572388,74.175797 104.580338,74.175797 
	C105.076996,80.084679 105.731934,85.446335 105.926567,90.824646 
	C106.155365,97.147171 105.929741,103.485374 106.071175,109.812981 
	C106.085518,110.454765 107.267372,111.070457 107.950180,112.103348 
	C108.061249,113.047058 108.129585,113.585655 108.163727,114.091560 
	C108.129532,114.058861 108.195541,113.991058 107.995415,114.224045 
	C107.540024,115.007065 107.284752,115.557098 106.942032,116.363800 
	C106.604553,117.095505 106.354523,117.570549 105.887405,118.153976 
	C105.408218,118.659454 105.146118,119.056541 104.602753,119.555435 
	C104.143089,119.744881 103.964684,119.832512 103.417389,119.933105 
	C102.065094,119.969482 101.081688,119.992897 100.096565,119.587250 
	C99.975029,116.900391 99.855217,114.642593 99.448593,112.119865 
	C95.179443,111.970436 91.197113,112.085938 87.011246,112.548630 
	C86.523811,116.132927 86.239891,119.370049 85.957443,122.590363 
	C79.704849,122.590363 73.829353,122.590363 68.020714,122.590363 
	C67.833084,121.689865 67.646324,121.204323 67.643433,120.717674 
	C67.603836,114.057648 67.576080,107.397469 67.571968,100.737320 
	C67.563263,86.639862 67.568321,86.756142 81.817390,86.920311 
	C85.361839,86.961136 86.398094,88.182945 86.424904,91.562164 
	C86.484489,99.072868 88.333580,100.333138 95.666870,98.395454 
	C97.062065,98.026794 98.430412,97.556503 100.099533,97.044685 
	C100.099533,93.104660 100.243179,89.286888 100.069199,85.483650 
	C99.722176,77.897629 96.514236,74.454865 88.951584,74.201981 
	C80.468925,73.918343 71.962486,73.924347 63.479343,74.201241 
	C55.707207,74.454933 52.193481,78.087715 52.096607,85.787285 
	C51.937408,98.440796 52.051201,111.097679 52.037907,123.753128 
	C52.032837,128.578217 53.580116,132.567200 58.270477,135.208374 
	C58.949684,135.469559 59.356785,135.572495 59.879143,135.511139 
	C59.994396,135.346832 60.382458,135.244324 60.382458,135.244324 
	C60.382458,135.244324 60.783772,135.250946 60.711906,135.648438 
	C60.482601,136.838440 60.325157,137.630966 60.142075,138.754578 
	C58.014751,141.543396 55.913067,144.001099 53.811382,146.458817 
	C53.405357,146.611267 52.999332,146.763718 52.287369,147.027451 
	C35.216057,142.706558 36.092121,141.244171 36.162949,125.351357 
	C36.228291,110.690323 36.177353,96.028793 36.187408,81.367477 
	C36.194336,71.266808 38.263573,68.853180 48.411125,66.967422 
	C49.385414,66.786362 50.319618,66.389633 51.959103,65.972504 
	C53.192940,65.558975 53.740108,65.265991 54.287277,64.973000 
	C56.009525,64.599937 57.731770,64.226875 59.994659,63.756054 
	C60.897652,63.619217 61.157951,63.435516 61.316196,63.107193 
	C61.702522,63.062767 62.088848,63.018341 62.729691,62.824917 
	C63.814098,62.516541 64.643982,62.357162 65.722168,61.990944 
	C72.743034,59.950954 79.515587,58.117813 86.996178,56.134525 
	C88.076607,55.726837 88.449013,55.469292 88.821411,55.211746 
	C89.378403,55.186722 89.935402,55.161697 91.072456,55.033310 
	C92.221031,54.663914 92.789543,54.397873 93.358055,54.131836 
	C93.734604,54.092751 94.111153,54.053669 95.069832,53.931160 
	C96.205956,53.558075 96.759949,53.268425 97.313950,52.978771 
	C98.108421,52.891552 98.902901,52.804333 100.087051,52.615990 
	C100.760689,52.455959 100.946571,52.288265 101.034378,52.011780 
	C106.295586,52.429550 111.556793,52.847321 117.268593,53.448334 
	C118.141296,53.684616 118.563408,53.737663 118.985519,53.790710 
	C119.346992,53.906563 119.708466,54.022419 120.594177,54.352676 
	C121.741966,54.673508 122.365517,54.779934 122.989059,54.886360 
	C123.532852,55.054207 124.076637,55.222050 125.123642,55.579445 
	C126.084145,55.836185 126.541420,55.903378 126.998703,55.970570 
	C127.258568,56.167820 127.551582,56.269958 128.382156,56.465778 
	C129.591766,56.772350 130.296967,56.890133 131.002167,57.007915 
	C131.241013,57.212368 131.517624,57.315914 132.258514,57.495018 
	C133.120316,57.753189 133.555664,57.834900 133.990997,57.916611 
	C138.423141,59.214607 142.855270,60.512600 147.661072,61.798595 
z"/>
<path fill="#D5D6D4" opacity="1.000000" stroke="none" 
	d="
M159.797638,139.350113 
	C159.797638,139.350113 159.857788,139.686722 159.789673,140.103973 
	C160.835892,142.363831 161.950226,144.206421 163.064545,146.049026 
	C151.914108,149.317062 140.763977,152.586121 129.612701,155.851349 
	C128.654510,156.131912 127.643608,156.281128 126.733475,156.669952 
	C113.526703,162.311951 100.459869,162.190811 87.103775,156.735428 
	C80.208565,153.919052 72.793823,152.374573 65.352684,149.782684 
	C65.389374,148.525055 65.687202,147.740173 66.400505,146.854034 
	C69.845871,146.468613 72.875755,146.184448 76.263885,145.850143 
	C78.109596,145.089371 79.597069,144.378738 81.360123,143.687073 
	C81.999634,143.761536 82.363571,143.817032 82.963989,143.736298 
	C83.448059,143.333603 83.695663,143.067154 83.922699,142.850708 
	C83.902145,142.900711 83.802872,142.857864 84.148376,142.803589 
	C86.971855,139.772858 89.449829,136.796432 91.949463,133.623810 
	C91.971123,133.427628 92.025536,133.036636 92.230362,133.027283 
	C92.435188,133.017914 92.840759,132.957291 93.052856,132.803955 
	C93.500069,132.393387 93.735184,132.136154 93.948547,131.936630 
	C93.926788,131.994339 93.811501,131.950485 94.028198,131.766724 
	C94.466988,131.278107 94.689087,130.973221 95.042633,130.393372 
	C96.165070,129.096619 97.156075,128.074844 98.499451,127.006317 
	C99.881264,125.583290 100.910698,124.207016 102.059341,122.593735 
	C102.691887,121.880516 103.205223,121.404305 103.954514,120.718018 
	C104.421646,120.156502 104.652824,119.805061 104.884003,119.453629 
	C105.146118,119.056541 105.408218,118.659454 106.164795,118.248520 
	C109.104424,117.160667 111.549599,116.086662 114.295921,115.123810 
	C115.732010,116.483452 116.866951,117.731949 118.146919,119.174210 
	C118.506592,119.612877 118.753487,119.819191 119.014694,119.995636 
	C118.996780,120.004349 119.012733,119.967857 119.155937,120.161819 
	C119.510803,120.601212 119.753944,120.809998 120.013504,120.990097 
	C119.998444,120.998062 120.024887,120.974037 120.106125,121.291588 
	C121.139381,122.403343 122.091385,123.197548 123.330383,124.146889 
	C125.412605,126.193260 127.207832,128.084503 129.152222,130.169769 
	C129.520432,130.609177 129.770355,130.817566 130.325409,131.117996 
	C131.396866,131.840607 132.194061,132.434174 133.026917,133.202026 
	C133.062576,133.376312 133.118744,133.727646 133.167908,133.863724 
	C133.409729,134.249908 133.661896,134.342194 134.316589,134.263855 
	C135.113983,134.196518 135.568359,134.141983 136.243774,134.288773 
	C137.316193,135.320389 138.167572,136.150665 138.978546,137.208969 
	C138.997314,137.739929 139.049500,138.044083 139.350266,138.630951 
	C140.310898,139.154053 141.015991,139.395584 142.042480,139.519592 
	C143.227219,139.638397 144.090546,139.874771 145.128296,140.419556 
	C148.895035,143.118591 152.394150,144.780441 155.644531,140.120972 
	C156.109604,139.454300 157.323990,139.310349 158.458221,139.004181 
	C159.082443,139.172607 159.440048,139.261353 159.797638,139.350113 
M100.122002,133.121765 
	C100.122002,133.121765 100.221664,133.188110 99.444611,133.177002 
	C95.654404,133.281021 94.869537,135.746552 94.683350,139.495255 
	C92.865601,141.351517 91.047852,143.207779 88.772346,145.323639 
	C88.517891,145.563309 88.263428,145.802994 87.965561,146.522125 
	C87.965561,146.522125 88.016960,147.000809 87.470627,147.272888 
	C87.495911,148.043091 87.244614,149.313583 87.590103,149.504593 
	C90.427475,151.073196 105.185814,145.683014 106.720406,142.730240 
	C106.720406,142.730240 106.635201,142.729523 107.341766,142.565781 
	C110.506081,140.172195 110.452026,137.189667 108.906731,133.285416 
	C109.034309,132.872192 109.161888,132.458954 109.845413,131.693588 
	C110.196289,129.450043 110.547165,127.206497 110.860909,124.301712 
	C110.907196,123.862778 110.953484,123.423843 111.258202,122.547203 
	C110.463760,122.173950 109.053162,121.367332 108.965874,121.491432 
	C107.228851,123.961182 105.644745,126.538490 103.781685,129.630890 
	C102.937462,130.444580 102.093231,131.258286 100.789459,132.385376 
	C100.545265,132.664322 100.301071,132.943283 100.122002,133.121765 
z"/>
<path fill="#C0C9D7" opacity="1.000000" stroke="none" 
	d="
M81.084549,143.668091 
	C79.597069,144.378738 78.109596,145.089371 76.111435,145.558289 
	C74.361420,144.505753 73.154076,143.640274 71.877296,142.893494 
	C65.804314,139.341385 63.621647,140.083511 60.459183,146.955292 
	C62.382519,146.955292 64.183777,146.955292 65.985031,146.955292 
	C65.687202,147.740173 65.389374,148.525055 65.011856,149.612488 
	C61.416546,148.943237 57.900921,147.971420 54.098335,146.729218 
	C55.913067,144.001099 58.014751,141.543396 60.491833,138.694244 
	C62.710907,136.970261 64.554588,135.637711 66.463562,134.257950 
	C68.958298,135.645828 71.393456,137.000549 74.048866,138.589142 
	C76.540932,140.438034 78.812744,142.053070 81.084549,143.668091 
z"/>
<path fill="#C0C9D7" opacity="1.000000" stroke="none" 
	d="
M163.409882,146.021988 
	C161.950226,144.206421 160.835892,142.363831 159.810364,140.273712 
	C161.870239,141.317764 163.841309,142.609360 165.964386,144.167877 
	C166.089966,144.689423 166.063568,144.944000 165.931519,145.567566 
	C165.135681,145.956009 164.445450,145.975479 163.409882,146.021988 
z"/>
<path fill="#E2EDF6" opacity="1.000000" stroke="none" 
	d="
M53.982204,65.018463 
	C53.740108,65.265991 53.192940,65.558975 52.330399,65.828384 
	C52.569061,65.557854 53.123096,65.310898 53.982204,65.018463 
z"/>
<path fill="#E2EDF6" opacity="1.000000" stroke="none" 
	d="
M61.090782,63.149551 
	C61.157951,63.435516 60.897652,63.619217 60.289719,63.624897 
	C60.294567,63.410400 60.568310,63.277203 61.090782,63.149551 
z"/>
<path fill="#E2EDF6" opacity="1.000000" stroke="none" 
	d="
M93.045509,54.155197 
	C92.789543,54.397873 92.221031,54.663914 91.331520,54.908600 
	C91.584663,54.651020 92.158813,54.414787 93.045509,54.155197 
z"/>
<path fill="#E2EDF6" opacity="1.000000" stroke="none" 
	d="
M122.720207,54.726418 
	C122.365517,54.779934 121.741966,54.673508 120.879929,54.350624 
	C121.244736,54.278275 121.848045,54.422375 122.720207,54.726418 
z"/>
<path fill="#E2EDF6" opacity="1.000000" stroke="none" 
	d="
M97.005905,53.021332 
	C96.759949,53.268425 96.205956,53.558075 95.333755,53.821442 
	C95.576324,53.551399 96.137100,53.307648 97.005905,53.021332 
z"/>
<path fill="#E2EDF6" opacity="1.000000" stroke="none" 
	d="
M130.698578,56.827782 
	C130.296967,56.890133 129.591766,56.772350 128.611389,56.410660 
	C129.022491,56.327045 129.708740,56.487343 130.698578,56.827782 
z"/>
<path fill="#E2EDF6" opacity="1.000000" stroke="none" 
	d="
M118.715088,53.650822 
	C118.563408,53.737663 118.141296,53.684616 117.499191,53.389091 
	C117.667694,53.268055 118.056175,53.389492 118.715088,53.650822 
z"/>
<path fill="#E2EDF6" opacity="1.000000" stroke="none" 
	d="
M100.862968,52.046242 
	C100.946571,52.288265 100.760689,52.455959 100.286240,52.473862 
	C100.267693,52.270367 100.466293,52.152981 100.862968,52.046242 
z"/>
<path fill="#E2EDF6" opacity="1.000000" stroke="none" 
	d="
M133.717896,57.752823 
	C133.555664,57.834900 133.120316,57.753189 132.466339,57.408356 
	C132.646744,57.293163 133.045776,57.441101 133.717896,57.752823 
z"/>
<path fill="#E2EDF6" opacity="1.000000" stroke="none" 
	d="
M126.708900,55.813339 
	C126.541420,55.903378 126.084145,55.836185 125.397888,55.496719 
	C125.585640,55.368328 126.002365,55.512218 126.708900,55.813339 
z"/>
<path fill="#E2EDF6" opacity="1.000000" stroke="none" 
	d="
M88.505051,55.307262 
	C88.449013,55.469292 88.076607,55.726837 87.352814,55.976883 
	C87.397179,55.780514 87.792938,55.591644 88.505051,55.307262 
z"/>
<path fill="#E2EDF6" opacity="1.000000" stroke="none" 
	d="
M161.727814,65.644547 
	C161.378891,65.681068 160.772049,65.556755 159.939972,65.202248 
	C160.299789,65.142609 160.884842,65.313156 161.727814,65.644547 
z"/>
<path fill="#E2EDF6" opacity="1.000000" stroke="none" 
	d="
M169.704742,67.781586 
	C169.321320,67.839119 168.646896,67.726120 167.710632,67.379311 
	C168.103775,67.300682 168.758759,67.455864 169.704742,67.781586 
z"/>
<path fill="#E2EDF6" opacity="1.000000" stroke="none" 
	d="
M165.710938,66.742859 
	C165.550842,66.828850 165.108917,66.763214 164.439331,66.440430 
	C164.617493,66.319283 165.023300,66.455261 165.710938,66.742859 
z"/>
<path fill="#E2EDF6" opacity="1.000000" stroke="none" 
	d="
M153.758530,63.471123 
	C153.957382,63.588062 153.463959,63.657402 153.463959,63.657402 
	C153.463959,63.657402 152.993698,63.492619 152.833252,63.301632 
	C152.983002,63.138718 153.278625,63.219898 153.758530,63.471123 
z"/>
<path fill="#F3F7F9" opacity="1.000000" stroke="none" 
	d="
M143.150009,80.031601 
	C143.150009,80.031601 143.345917,79.898979 143.600952,79.510925 
	C144.502182,77.541054 145.148392,75.959236 145.794601,74.377419 
	C150.486145,74.406776 155.177704,74.436127 160.190521,75.160683 
	C160.486099,93.900948 160.478897,111.946075 160.408264,129.990967 
	C160.400589,131.950470 160.026184,133.908539 159.821869,135.867264 
	C159.821869,135.867264 159.870041,135.916321 159.614609,135.701111 
	C155.717041,133.002670 152.074905,130.519440 148.390076,128.053864 
	C148.347397,128.071518 148.369461,127.990524 148.328659,127.524384 
	C148.196198,120.703133 148.104538,114.348007 148.131607,107.650635 
	C148.146484,105.995056 148.042633,104.681725 147.938797,103.368393 
	C147.607285,103.373581 147.275787,103.378769 146.944275,103.383957 
	C146.477356,104.761658 146.010437,106.139359 145.518890,107.536316 
	C145.494247,107.555573 145.527130,107.608765 145.349915,107.801949 
	C145.136520,108.335617 145.100327,108.676094 145.033905,109.028465 
	C145.003647,109.040352 145.039871,109.094315 144.894135,109.183792 
	C144.579849,109.469078 144.551697,109.683319 144.438828,110.244400 
	C142.415939,115.132576 140.782654,119.768257 138.731522,124.211021 
	C138.010559,125.772614 136.264816,126.861069 134.725891,128.145630 
	C134.270157,128.404846 134.075516,128.683975 133.657257,128.992981 
	C133.433609,129.022858 133.003296,129.158737 132.676300,129.046448 
	C124.064362,124.077209 122.570946,114.752197 118.273911,106.083191 
	C117.202164,108.955414 116.568329,110.654053 115.898590,112.448921 
	C113.151550,110.762367 110.788834,107.543190 107.907440,111.698250 
	C107.267372,111.070457 106.085518,110.454765 106.071175,109.812981 
	C105.929741,103.485374 106.155365,97.147171 105.926567,90.824646 
	C105.731934,85.446335 105.076996,80.084679 104.580338,74.175797 
	C108.572388,74.175797 113.338577,73.967323 118.060303,74.332916 
	C119.143356,74.416786 120.458488,76.315895 121.011993,77.651054 
	C124.823830,86.845833 128.461853,96.112656 132.584824,106.429932 
	C135.016357,100.513359 137.028931,95.616241 139.286530,90.215790 
	C139.531525,89.712456 139.546753,89.250259 139.546753,89.250259 
	C139.750336,88.813522 139.953934,88.376785 140.421646,87.462173 
	C140.841248,86.340675 140.996735,85.697052 141.152222,85.053421 
	C141.413879,84.559006 141.675522,84.064583 142.196640,83.057076 
	C142.687408,81.706520 142.918716,80.869064 143.150009,80.031601 
z"/>
<path fill="#F3F6FA" opacity="1.000000" stroke="none" 
	d="
M99.735405,112.384804 
	C99.855217,114.642593 99.975029,116.900391 99.834991,119.797646 
	C97.040939,123.377182 94.506744,126.317253 91.719566,129.404083 
	C90.846252,130.300995 90.225929,131.051132 89.339783,131.953186 
	C88.003616,133.332977 86.933281,134.560867 85.420364,135.830917 
	C81.995544,135.957581 79.013283,136.042084 75.709473,136.040695 
	C74.951393,135.874908 74.514862,135.795029 73.889145,135.442001 
	C65.613708,129.907425 65.613708,129.907425 60.783772,135.250946 
	C60.783772,135.250946 60.382458,135.244324 60.382458,135.244324 
	C60.382458,135.244324 59.994396,135.346832 59.632034,135.293884 
	C58.845905,135.177338 58.422138,135.113724 57.998371,135.050110 
	C53.580116,132.567200 52.032837,128.578217 52.037907,123.753128 
	C52.051201,111.097679 51.937408,98.440796 52.096607,85.787285 
	C52.193481,78.087715 55.707207,74.454933 63.479343,74.201241 
	C71.962486,73.924347 80.468925,73.918343 88.951584,74.201981 
	C96.514236,74.454865 99.722176,77.897629 100.069199,85.483650 
	C100.243179,89.286888 100.099533,93.104660 100.099533,97.044685 
	C98.430412,97.556503 97.062065,98.026794 95.666870,98.395454 
	C88.333580,100.333138 86.484489,99.072868 86.424904,91.562164 
	C86.398094,88.182945 85.361839,86.961136 81.817390,86.920311 
	C67.568321,86.756142 67.563263,86.639862 67.571968,100.737320 
	C67.576080,107.397469 67.603836,114.057648 67.643433,120.717674 
	C67.646324,121.204323 67.833084,121.689865 68.020714,122.590363 
	C73.829353,122.590363 79.704849,122.590363 85.957443,122.590363 
	C86.239891,119.370049 86.523811,116.132927 87.448112,112.613525 
	C91.970802,112.349091 95.853104,112.366943 99.735405,112.384804 
z"/>
<path fill="#556FA1" opacity="1.000000" stroke="none" 
	d="
M160.180084,135.714111 
	C160.026184,133.908539 160.400589,131.950470 160.408264,129.990967 
	C160.478897,111.946075 160.486099,93.900948 160.583496,75.387199 
	C161.086136,76.628983 161.881760,78.337379 161.891464,80.050240 
	C161.985657,96.683723 161.992767,113.318245 161.886292,129.951584 
	C161.874298,131.824173 161.008286,133.691299 160.180084,135.714111 
z"/>
<path fill="#395897" opacity="1.000000" stroke="none" 
	d="
M107.950180,112.103348 
	C110.788834,107.543190 113.151550,110.762367 115.898590,112.448921 
	C116.568329,110.654053 117.202164,108.955414 118.273911,106.083191 
	C122.570946,114.752197 124.064362,124.077209 132.675797,129.433350 
	C132.998596,130.964264 132.994919,131.996002 132.991241,133.027756 
	C132.194061,132.434174 131.396866,131.840607 130.230164,130.877594 
	C129.574799,130.330688 129.288940,130.153214 129.003067,129.975754 
	C127.207832,128.084503 125.412605,126.193260 123.282608,123.806870 
	C121.973526,122.532494 120.999207,121.753265 120.024887,120.974037 
	C120.024887,120.974037 119.998444,120.998062 119.929047,120.748230 
	C119.577339,120.321548 119.295036,120.144707 119.012733,119.967857 
	C119.012733,119.967857 118.996780,120.004349 118.921501,119.757919 
	C118.564774,119.334473 118.283325,119.157463 118.001892,118.980438 
	C116.866951,117.731949 115.732010,116.483452 114.166336,114.829834 
	C112.030632,111.727104 110.156891,112.140297 108.197922,114.124260 
	C108.129585,113.585655 108.061249,113.047058 107.950180,112.103348 
z"/>
<path fill="#51699C" opacity="1.000000" stroke="none" 
	d="
M60.711906,135.648438 
	C65.613708,129.907425 65.613708,129.907425 73.842911,135.881531 
	C73.933449,137.181229 73.881027,137.768250 73.828606,138.355270 
	C71.393456,137.000549 68.958298,135.645828 66.463562,134.257950 
	C64.554588,135.637711 62.710907,136.970261 60.517471,138.363159 
	C60.325157,137.630966 60.482601,136.838440 60.711906,135.648438 
z"/>
<path fill="#556FA1" opacity="1.000000" stroke="none" 
	d="
M148.432770,128.036209 
	C152.074905,130.519440 155.717041,133.002670 159.627380,135.669205 
	C159.873337,136.727020 159.851074,137.601532 159.813217,138.913086 
	C159.440048,139.261353 159.082443,139.172607 158.254364,138.728485 
	C154.878922,136.274979 151.830429,134.339325 149.157639,131.978333 
	C148.369919,131.282516 148.644836,129.383713 148.432770,128.036209 
z"/>
<path fill="#536F9E" opacity="1.000000" stroke="none" 
	d="
M91.972549,129.257324 
	C94.506744,126.317253 97.040939,123.377182 99.836708,120.226715 
	C101.081688,119.992897 102.065094,119.969482 103.409775,120.185783 
	C103.753548,120.593033 103.736046,120.760559 103.718552,120.928093 
	C103.205223,121.404305 102.691887,121.880516 101.778893,122.752075 
	C100.301849,124.449310 99.224457,125.751198 98.147072,127.053078 
	C97.156075,128.074844 96.165070,129.096619 94.804626,130.461609 
	C94.435188,130.804840 93.969734,130.972275 93.983185,130.985062 
	C93.996643,130.997849 94.023415,131.023560 93.979309,131.051392 
	C93.935196,131.079224 93.947052,130.932190 93.454590,130.512115 
	C92.632263,129.813797 92.302406,129.535553 91.972549,129.257324 
z"/>
<path fill="#C5CDD8" opacity="1.000000" stroke="none" 
	d="
M108.163727,114.091560 
	C110.156891,112.140297 112.030632,111.727104 113.865181,114.718689 
	C111.549599,116.086662 109.104424,117.160667 106.381874,118.140129 
	C106.354523,117.570549 106.604553,117.095505 107.211227,116.195190 
	C107.777092,115.176971 107.986320,114.584015 108.195541,113.991058 
	C108.195541,113.991058 108.129532,114.058861 108.163727,114.091560 
z"/>
<path fill="#536F9E" opacity="1.000000" stroke="none" 
	d="
M99.448593,112.119865 
	C95.853104,112.366943 91.970802,112.349091 87.651642,112.266342 
	C91.197113,112.085938 95.179443,111.970436 99.448593,112.119865 
z"/>
<path fill="#556FA1" opacity="1.000000" stroke="none" 
	d="
M145.461060,74.551361 
	C145.148392,75.959236 144.502182,77.541054 143.604324,79.392685 
	C143.944290,78.016769 144.535904,76.371033 145.461060,74.551361 
z"/>
<path fill="#556FA1" opacity="1.000000" stroke="none" 
	d="
M142.888138,80.134216 
	C142.918716,80.869064 142.687408,81.706520 142.214874,82.770538 
	C142.191177,82.077003 142.408722,81.156914 142.888138,80.134216 
z"/>
<path fill="#395897" opacity="1.000000" stroke="none" 
	d="
M107.995422,114.224045 
	C107.986320,114.584015 107.777092,115.176971 107.298676,115.938530 
	C107.284752,115.557098 107.540024,115.007065 107.995422,114.224045 
z"/>
<path fill="#556FA1" opacity="1.000000" stroke="none" 
	d="
M140.927078,85.300758 
	C140.996735,85.697052 140.841248,86.340675 140.448059,87.221283 
	C140.374191,86.821541 140.538055,86.184822 140.927078,85.300758 
z"/>
<path fill="#51699C" opacity="1.000000" stroke="none" 
	d="
M58.270477,135.208374 
	C58.422138,135.113724 58.845905,135.177338 59.516777,135.458191 
	C59.356785,135.572495 58.949684,135.469559 58.270477,135.208374 
z"/>
<path fill="#556FA1" opacity="1.000000" stroke="none" 
	d="
M139.406281,89.271133 
	C139.546753,89.250259 139.531525,89.712456 139.350647,89.856674 
	C138.967209,89.732445 138.999222,89.496155 139.406281,89.271133 
z"/>
<path fill="#C5CDD8" opacity="1.000000" stroke="none" 
	d="
M103.954514,120.718018 
	C103.736046,120.760559 103.753548,120.593033 103.778656,120.172821 
	C103.964684,119.832512 104.143089,119.744881 104.602753,119.555435 
	C104.652824,119.805061 104.421646,120.156502 103.954514,120.718018 
z"/>
<path fill="#3F5E9B" opacity="1.000000" stroke="none" 
	d="
M109.289474,132.045731 
	C109.161888,132.458954 109.034309,132.872192 108.699646,133.921158 
	C107.873444,137.281113 107.254318,140.005310 106.635201,142.729523 
	C106.635201,142.729523 106.720406,142.730240 106.354828,142.777664 
	C99.998482,144.216995 94.007721,145.608902 88.016960,147.000793 
	C88.016960,147.000809 87.965561,146.522125 88.243889,146.187561 
	C88.758179,145.590012 88.994141,145.327026 89.230103,145.064041 
	C91.047852,143.207779 92.865601,141.351517 95.101349,139.035309 
	C97.086784,136.779617 98.654221,134.983871 100.221664,133.188110 
	C100.221664,133.188110 100.122002,133.121765 100.366119,133.072098 
	C100.823158,132.705627 101.036087,132.388809 101.249008,132.071991 
	C102.093231,131.258286 102.937462,130.444580 104.204918,129.214203 
	C106.752022,126.859985 108.875893,124.922440 110.999756,122.984909 
	C110.953484,123.423843 110.907196,123.862778 110.669121,124.925827 
	C110.081383,127.715210 109.685425,129.880478 109.289474,132.045731 
z"/>
<path fill="#395A9B" opacity="1.000000" stroke="none" 
	d="
M133.026917,133.202026 
	C132.994919,131.996002 132.998596,130.964264 133.002792,129.545624 
	C133.003296,129.158737 133.433609,129.022858 133.850037,128.872101 
	C134.520493,128.554047 134.760666,128.368774 134.986984,128.165558 
	C136.264816,126.861069 138.010559,125.772614 138.731522,124.211021 
	C140.782654,119.768257 142.415939,115.132576 144.554657,110.137268 
	C145.021866,109.517838 145.069946,109.315369 145.039871,109.094315 
	C145.039871,109.094315 145.003647,109.040352 145.178955,108.820450 
	C145.411880,108.269943 145.469498,107.939354 145.527130,107.608765 
	C145.527130,107.608765 145.494247,107.555573 145.927612,107.630409 
	C146.911606,107.801125 147.462234,107.897011 148.012878,107.992889 
	C148.104538,114.348007 148.196198,120.703133 148.197174,127.999985 
	C147.538925,128.945557 146.971375,128.949417 145.891617,128.772400 
	C145.027390,128.506546 144.675354,128.421539 144.009247,128.355621 
	C141.137665,130.278961 138.580200,132.183212 136.022736,134.087448 
	C135.568359,134.141983 135.113983,134.196518 134.129059,134.085815 
	C133.438583,133.856262 133.278671,133.791946 133.118744,133.727646 
	C133.118744,133.727646 133.062576,133.376312 133.026917,133.202026 
z"/>
<path fill="#C0C9D7" opacity="1.000000" stroke="none" 
	d="
M136.243774,134.288773 
	C138.580200,132.183212 141.137665,130.278961 144.215973,128.599670 
	C145.292480,128.867508 145.848145,128.910385 146.403824,128.953278 
	C146.971375,128.949417 147.538925,128.945557 148.237976,128.466125 
	C148.369461,127.990524 148.347397,128.071518 148.390076,128.053864 
	C148.644836,129.383713 148.369919,131.282516 149.157639,131.978333 
	C151.830429,134.339325 154.878922,136.274979 157.987747,138.648804 
	C157.323990,139.310349 156.109604,139.454300 155.644531,140.120972 
	C152.394150,144.780441 148.895035,143.118591 145.503754,140.427551 
	C147.029068,140.434265 148.353348,140.741425 150.226135,141.175797 
	C147.286362,135.171783 144.322861,134.242432 139.018951,136.980957 
	C138.167572,136.150665 137.316193,135.320389 136.243774,134.288773 
z"/>
<path fill="#4C679C" opacity="1.000000" stroke="none" 
	d="
M66.400513,146.854034 
	C64.183777,146.955292 62.382519,146.955292 60.459183,146.955292 
	C63.621647,140.083511 65.804314,139.341385 71.877296,142.893494 
	C73.154076,143.640274 74.361420,144.505753 75.753204,145.608398 
	C72.875755,146.184448 69.845871,146.468613 66.400513,146.854034 
z"/>
<path fill="#3C5A98" opacity="1.000000" stroke="none" 
	d="
M74.048866,138.589142 
	C73.881027,137.768250 73.933449,137.181229 74.032104,136.154663 
	C74.514862,135.795029 74.951393,135.874908 76.069084,136.206848 
	C79.801453,136.608627 82.852646,136.758347 86.161926,137.101044 
	C86.595581,137.417831 86.771149,137.541641 86.761406,137.952118 
	C85.651680,139.778488 84.727280,141.318176 83.802872,142.857864 
	C83.802872,142.857864 83.902145,142.900711 83.654671,142.946030 
	C83.180634,143.285080 82.954071,143.578796 82.727516,143.872528 
	C82.363571,143.817032 81.999634,143.761536 81.360123,143.687073 
	C78.812744,142.053070 76.540932,140.438034 74.048866,138.589142 
z"/>
<path fill="#C5CDD8" opacity="1.000000" stroke="none" 
	d="
M87.743790,147.136841 
	C94.007721,145.608902 99.998482,144.216995 106.353226,142.735077 
	C105.185814,145.683014 90.427475,151.073196 87.590103,149.504593 
	C87.244614,149.313583 87.495911,148.043091 87.743790,147.136841 
z"/>
<path fill="#4C6596" opacity="1.000000" stroke="none" 
	d="
M138.978546,137.208969 
	C144.322861,134.242432 147.286362,135.171783 150.226135,141.175797 
	C148.353348,140.741425 147.029068,140.434265 145.329330,140.119110 
	C144.090546,139.874771 143.227219,139.638397 141.793549,139.232376 
	C140.513718,138.824951 139.804214,138.587173 139.094711,138.349396 
	C139.049500,138.044083 138.997314,137.739929 138.978546,137.208969 
z"/>
<path fill="#C0C9D7" opacity="1.000000" stroke="none" 
	d="
M84.148376,142.803589 
	C84.727280,141.318176 85.651680,139.778488 87.006004,137.766449 
	C88.933212,136.136047 90.430511,134.978027 91.927803,133.819992 
	C89.449829,136.796432 86.971855,139.772858 84.148376,142.803589 
z"/>
<path fill="#C5CDD8" opacity="1.000000" stroke="none" 
	d="
M111.128983,122.766052 
	C108.875893,124.922440 106.752022,126.859985 104.328918,128.945770 
	C105.644745,126.538490 107.228851,123.961182 108.965874,121.491432 
	C109.053162,121.367332 110.463760,122.173950 111.128983,122.766052 
z"/>
<path fill="#C5CDD8" opacity="1.000000" stroke="none" 
	d="
M106.988480,142.647644 
	C107.254318,140.005310 107.873444,137.281113 108.706711,134.246857 
	C110.452026,137.189667 110.506081,140.172195 106.988480,142.647644 
z"/>
<path fill="#3C5A98" opacity="1.000000" stroke="none" 
	d="
M91.949463,133.623810 
	C90.430511,134.978027 88.933212,136.136047 87.191322,137.479767 
	C86.771149,137.541641 86.595581,137.417831 86.161484,136.821442 
	C85.889633,136.162155 85.876289,135.975449 85.862938,135.788757 
	C86.933281,134.560867 88.003616,133.332977 89.662338,132.067780 
	C90.842323,132.365860 91.433929,132.701248 92.025536,133.036636 
	C92.025536,133.036636 91.971123,133.427628 91.949463,133.623810 
z"/>
<path fill="#C5CDD8" opacity="1.000000" stroke="none" 
	d="
M99.833138,133.182556 
	C98.654221,134.983871 97.086784,136.779617 95.235863,138.734650 
	C94.869537,135.746552 95.654404,133.281021 99.833138,133.182556 
z"/>
<path fill="#C5CDD8" opacity="1.000000" stroke="none" 
	d="
M109.567444,131.869659 
	C109.685425,129.880478 110.081383,127.715210 110.687683,125.256454 
	C110.547165,127.206497 110.196289,129.450043 109.567444,131.869659 
z"/>
<path fill="#C5CDD8" opacity="1.000000" stroke="none" 
	d="
M98.499451,127.006317 
	C99.224457,125.751198 100.301849,124.449310 101.659683,122.989090 
	C100.910698,124.207016 99.881264,125.583290 98.499451,127.006317 
z"/>
<path fill="#536F9E" opacity="1.000000" stroke="none" 
	d="
M92.230362,133.027283 
	C91.433929,132.701248 90.842323,132.365860 89.928162,131.915863 
	C90.225929,131.051132 90.846252,130.300995 91.719559,129.404083 
	C92.302406,129.535553 92.632263,129.813797 93.492081,130.481628 
	C94.022034,130.871216 94.023415,131.023560 94.023415,131.023560 
	C94.023415,131.023560 93.996643,130.997849 93.926437,131.226837 
	C93.856232,131.455826 93.811501,131.950485 93.811501,131.950485 
	C93.811501,131.950485 93.926788,131.994339 93.687500,132.026917 
	C93.245728,132.358749 93.043243,132.658020 92.840759,132.957291 
	C92.840759,132.957291 92.435188,133.017914 92.230362,133.027283 
z"/>
<path fill="#C5CDD8" opacity="1.000000" stroke="none" 
	d="
M120.106125,121.291588 
	C120.999207,121.753265 121.973526,122.532494 122.995621,123.651741 
	C122.091385,123.197548 121.139381,122.403343 120.106125,121.291588 
z"/>
<path fill="#C0C9D7" opacity="1.000000" stroke="none" 
	d="
M139.350266,138.630951 
	C139.804214,138.587173 140.513718,138.824951 141.472137,139.349915 
	C141.015991,139.395584 140.310898,139.154053 139.350266,138.630951 
z"/>
<path fill="#C0C9D7" opacity="1.000000" stroke="none" 
	d="
M133.167908,133.863724 
	C133.278671,133.791946 133.438583,133.856262 133.786041,134.098633 
	C133.661896,134.342194 133.409729,134.249908 133.167908,133.863724 
z"/>
<path fill="#C5CDD8" opacity="1.000000" stroke="none" 
	d="
M89.001221,145.193848 
	C88.994141,145.327026 88.758179,145.590012 88.265594,145.947830 
	C88.263428,145.802994 88.517891,145.563309 89.001221,145.193848 
z"/>
<path fill="#C0C9D7" opacity="1.000000" stroke="none" 
	d="
M82.963989,143.736298 
	C82.954071,143.578796 83.180634,143.285080 83.675232,142.896027 
	C83.695663,143.067154 83.448059,143.333603 82.963989,143.736298 
z"/>
<path fill="#C5CDD8" opacity="1.000000" stroke="none" 
	d="
M118.146912,119.174210 
	C118.283325,119.157463 118.564774,119.334473 118.939423,119.749207 
	C118.753487,119.819191 118.506592,119.612877 118.146912,119.174210 
z"/>
<path fill="#C5CDD8" opacity="1.000000" stroke="none" 
	d="
M119.155937,120.161819 
	C119.295036,120.144707 119.577339,120.321548 119.944107,120.740265 
	C119.753944,120.809998 119.510803,120.601212 119.155937,120.161819 
z"/>
<path fill="#C5CDD8" opacity="1.000000" stroke="none" 
	d="
M129.152222,130.169769 
	C129.288940,130.153214 129.574799,130.330688 129.955902,130.748550 
	C129.770355,130.817566 129.520432,130.609177 129.152222,130.169769 
z"/>
<path fill="#C5CDD8" opacity="1.000000" stroke="none" 
	d="
M94.028198,131.766724 
	C93.811501,131.950485 93.856232,131.455826 93.912979,131.214050 
	C93.969734,130.972275 94.435188,130.804840 94.673187,130.736603 
	C94.689087,130.973221 94.466988,131.278107 94.028198,131.766724 
z"/>
<path fill="#C5CDD8" opacity="1.000000" stroke="none" 
	d="
M93.052856,132.803955 
	C93.043243,132.658020 93.245728,132.358749 93.709251,131.969208 
	C93.735184,132.136154 93.500069,132.393387 93.052856,132.803955 
z"/>
<path fill="#C5CDD8" opacity="1.000000" stroke="none" 
	d="
M101.019241,132.228683 
	C101.036087,132.388809 100.823158,132.705627 100.333549,133.122330 
	C100.301071,132.943283 100.545265,132.664322 101.019241,132.228683 
z"/>
<path fill="#556FA1" opacity="1.000000" stroke="none" 
	d="
M148.131607,107.650635 
	C147.462234,107.897011 146.911606,107.801125 145.952240,107.611153 
	C146.010437,106.139359 146.477356,104.761658 146.944275,103.383957 
	C147.275787,103.378769 147.607285,103.373581 147.938797,103.368393 
	C148.042633,104.681725 148.146484,105.995056 148.131607,107.650635 
z"/>
<path fill="#556FA1" opacity="1.000000" stroke="none" 
	d="
M145.349915,107.801949 
	C145.469498,107.939354 145.411880,108.269943 145.209198,108.808563 
	C145.100327,108.676094 145.136520,108.335617 145.349915,107.801949 
z"/>
<path fill="#556FA1" opacity="1.000000" stroke="none" 
	d="
M144.894135,109.183792 
	C145.069946,109.315369 145.021866,109.517838 144.779785,109.808853 
	C144.551697,109.683319 144.579849,109.469078 144.894135,109.183792 
z"/>
<path fill="#395897" opacity="1.000000" stroke="none" 
	d="
M134.725891,128.145630 
	C134.760666,128.368774 134.520493,128.554047 134.073685,128.842224 
	C134.075516,128.683975 134.270157,128.404846 134.725891,128.145630 
z"/>
<path fill="#51699C" opacity="1.000000" stroke="none" 
	d="
M85.420364,135.830917 
	C85.876289,135.975449 85.889633,136.162155 85.903412,136.628448 
	C82.852646,136.758347 79.801453,136.608627 76.390640,136.292755 
	C79.013283,136.042084 81.995544,135.957581 85.420364,135.830917 
z"/>
<path fill="#C5CDD8" opacity="1.000000" stroke="none" 
	d="
M93.979309,131.051392 
	C94.023415,131.023560 94.022034,130.871216 93.984543,130.901703 
	C93.947052,130.932190 93.935196,131.079224 93.979309,131.051392 
z"/>
<path fill="#556FA1" opacity="1.000000" stroke="none" 
	d="
M145.891617,128.772400 
	C145.848145,128.910385 145.292480,128.867508 144.530060,128.580566 
	C144.675354,128.421539 145.027390,128.506546 145.891617,128.772400 
z"/>
</svg>