<?xml version="1.0" standalone="no"?>
<!DOCTYPE svg PUBLIC "-//W3C//DTD SVG 20010904//EN"
 "http://www.w3.org/TR/2001/REC-SVG-20010904/DTD/svg10.dtd">
<svg version="1.0" xmlns="http://www.w3.org/2000/svg"
 width="900.000000pt" height="1350.000000pt" viewBox="0 0 900.000000 1350.000000"
 preserveAspectRatio="xMidYMid meet">
<metadata>
Created by potrace 1.10, written by Peter Selinger 2001-2011
</metadata>
<g transform="translate(0.000000,1350.000000) scale(0.100000,-0.100000)"
fill="#000000" stroke="none">
<path d="M4863 11484 c-18 -8 -16 -70 2 -130 9 -27 22 -69 30 -94 8 -25 17
-62 21 -84 6 -36 5 -38 -16 -31 -12 4 -41 19 -63 33 -23 15 -51 32 -62 39 -31
19 -223 113 -231 113 -3 0 -20 6 -37 14 -150 65 -272 93 -473 108 -188 15
-345 1 -529 -47 -148 -38 -247 -70 -287 -91 -14 -8 -32 -14 -40 -14 -26 0
-199 -93 -238 -129 -52 -48 -59 -79 -26 -118 14 -17 42 -38 61 -47 19 -9 35
-21 35 -27 0 -5 -17 -17 -37 -26 -210 -91 -370 -205 -509 -364 -97 -110 -118
-138 -162 -222 -54 -101 -59 -261 -11 -328 22 -32 131 -119 148 -119 6 0 17
-10 25 -22 11 -18 16 -84 20 -293 3 -148 9 -327 12 -396 l6 -126 -51 -34 c-53
-36 -121 -119 -141 -172 -6 -18 -18 -48 -26 -67 -48 -120 -49 -358 -2 -485 34
-91 102 -216 140 -256 7 -8 39 -44 70 -80 56 -64 58 -67 73 -160 17 -109 32
-171 51 -217 8 -18 14 -40 14 -50 0 -9 7 -26 15 -36 8 -11 15 -26 15 -35 0
-13 41 -107 77 -176 9 -16 47 -76 85 -133 37 -56 68 -108 68 -115 0 -6 -19
-23 -42 -37 -40 -24 -136 -114 -189 -176 -39 -46 -105 -162 -128 -224 -11 -30
-27 -99 -35 -154 -8 -54 -18 -101 -21 -105 -4 -3 -37 -11 -73 -18 -144 -25
-203 -46 -367 -129 -216 -109 -327 -195 -490 -381 -61 -70 -167 -213 -200
-271 -5 -9 -31 -49 -56 -87 -51 -77 -171 -274 -217 -357 -39 -70 -132 -247
-146 -277 -6 -13 -80 -162 -165 -330 -84 -168 -218 -436 -298 -596 -79 -159
-151 -303 -159 -318 -8 -16 -14 -52 -14 -81 0 -79 44 -113 113 -87 28 11 85
66 98 95 5 12 28 55 50 96 34 63 382 745 470 920 15 30 39 82 54 115 60 134
172 352 233 455 12 19 28 49 35 65 8 17 31 54 51 84 20 29 36 55 36 57 0 9
195 291 264 381 94 123 249 253 371 312 39 18 78 38 87 42 15 8 58 22 176 60
19 6 57 15 85 19 29 5 64 12 79 15 23 6 30 2 55 -35 128 -190 241 -316 378
-424 28 -22 55 -45 60 -51 6 -6 39 -33 75 -61 129 -98 294 -230 327 -261 l33
-31 -6 -124 c-3 -67 -10 -188 -15 -268 -28 -422 -31 -519 -26 -805 l4 -310
-42 -45 c-73 -78 -78 -155 -16 -225 42 -46 51 -78 51 -175 0 -80 3 -92 24
-117 22 -25 30 -28 90 -28 96 0 106 14 106 149 0 101 1 107 28 138 51 61 64
88 64 143 1 65 -20 103 -73 133 -24 14 -41 32 -45 49 -9 34 3 453 16 553 5 41
9 158 10 260 0 102 5 214 10 250 5 36 13 118 16 183 5 74 11 117 18 117 6 0
35 -23 64 -50 93 -86 157 -122 214 -123 43 -1 54 3 74 27 13 15 24 34 24 43 0
32 -40 79 -95 113 -69 42 -210 144 -219 158 -3 5 -8 34 -12 63 -14 122 -77
169 -196 144 -41 -8 -38 -11 -172 109 -38 33 -83 69 -100 79 -17 10 -35 24
-41 31 -5 6 -46 39 -90 73 -209 158 -295 264 -380 470 -19 45 -18 159 2 198 5
11 17 35 26 53 9 19 17 38 17 43 0 12 92 147 127 185 46 52 155 134 167 127 6
-4 36 -23 66 -44 30 -20 84 -52 120 -71 36 -20 81 -45 100 -57 19 -11 42 -24
50 -27 37 -17 60 -48 60 -83 0 -20 7 -76 15 -126 17 -102 20 -205 6 -205 -5 0
-23 22 -39 49 -57 92 -136 121 -168 60 -27 -52 0 -121 106 -275 95 -138 266
-323 633 -685 119 -118 137 -139 137 -167 0 -26 7 -36 32 -52 52 -31 85 -11
293 175 13 11 40 36 61 55 22 19 77 69 124 109 287 250 419 372 619 572 178
178 262 274 367 414 74 101 75 102 125 205 56 115 55 115 74 203 16 74 16 79
-3 110 -17 29 -23 32 -66 31 -40 0 -51 -5 -71 -30 -13 -16 -25 -36 -25 -44 -2
-26 -44 -103 -63 -114 -13 -8 -20 -8 -27 4 -21 33 -4 497 20 525 16 19 62 19
120 1 25 -8 72 -22 105 -31 82 -24 176 -54 200 -64 11 -5 40 -17 65 -27 25
-10 52 -24 61 -31 8 -7 19 -13 23 -13 4 0 34 -20 66 -45 127 -98 210 -227 210
-328 0 -46 4 -59 35 -105 1 -1 27 -9 57 -17 49 -12 76 -24 159 -71 79 -45 199
-164 199 -199 0 -20 -25 -36 -67 -41 -105 -15 -260 -100 -473 -259 -74 -56
-178 -130 -230 -165 -96 -64 -608 -375 -645 -391 -11 -5 -60 -32 -110 -59 -49
-27 -112 -61 -140 -75 -27 -15 -66 -35 -85 -47 -19 -11 -69 -39 -110 -61 -41
-22 -81 -44 -87 -49 -9 -7 -27 -1 -60 21 -55 36 -62 37 -111 12 -43 -22 -70
-69 -74 -126 -2 -31 -9 -42 -28 -52 -14 -6 -83 -40 -155 -75 -71 -34 -140 -74
-152 -88 -28 -31 -28 -68 -2 -100 18 -22 29 -25 78 -24 55 1 99 17 180 65 22
13 37 17 44 10 6 -6 6 -61 -2 -163 -15 -189 -38 -509 -50 -688 -5 -74 -14
-166 -20 -205 -13 -86 -30 -262 -40 -410 -10 -131 -14 -148 -46 -169 -37 -25
-75 -90 -75 -131 0 -37 32 -98 71 -133 20 -19 20 -24 10 -109 -23 -188 -13
-223 66 -236 102 -16 139 29 152 187 8 94 9 96 54 151 69 84 71 133 11 238
-21 36 -24 55 -24 139 0 54 4 128 10 165 10 69 24 251 40 508 5 77 14 164 19
194 6 29 11 108 12 175 0 66 4 155 9 196 5 41 14 139 20 218 5 79 15 152 20
162 6 10 81 54 168 98 86 43 175 89 197 102 22 12 68 38 102 56 73 40 162 90
183 104 8 6 22 13 30 17 8 4 17 9 20 13 3 4 38 27 78 51 40 24 85 52 100 61
15 10 36 22 47 28 11 6 32 18 46 28 15 9 55 35 90 56 146 90 347 222 577 379
62 42 115 77 118 77 3 0 20 11 37 24 52 38 147 79 198 84 95 9 282 -45 389
-113 22 -14 43 -25 48 -25 18 0 206 -102 269 -146 66 -46 129 -100 164 -139
50 -57 63 -73 87 -110 76 -116 161 -298 179 -385 3 -14 9 -29 13 -35 5 -5 11
-28 15 -50 3 -22 10 -49 15 -60 13 -29 39 -161 70 -365 17 -108 23 -540 11
-793 -17 -378 -45 -653 -96 -952 -9 -49 -20 -119 -25 -155 -4 -36 -13 -78 -19
-93 -6 -16 -11 -41 -11 -57 0 -15 -6 -50 -14 -76 -16 -57 -31 -113 -52 -204
-9 -36 -22 -92 -30 -125 -22 -94 -37 -211 -30 -240 13 -53 113 -67 162 -23 33
29 48 73 94 263 23 94 71 330 80 395 6 36 15 78 20 94 6 16 10 46 10 66 0 20
7 59 15 86 8 27 15 67 15 89 0 22 5 58 11 80 5 22 14 83 19 135 4 52 13 136
19 185 79 675 77 1192 -5 1555 -8 36 -14 75 -14 86 0 12 -7 38 -15 57 -8 20
-15 47 -15 61 0 13 -7 37 -15 52 -8 16 -15 40 -15 55 0 14 -4 29 -8 35 -5 5
-19 40 -31 77 -22 65 -49 129 -74 172 -58 99 -80 133 -146 220 -42 55 -100
125 -131 156 -52 53 -158 138 -190 152 -8 4 -28 16 -45 26 -27 17 -192 100
-270 136 -16 7 -61 24 -100 36 -121 39 -129 46 -137 118 -16 141 -168 300
-402 421 -43 22 -52 32 -71 80 -24 62 -49 116 -68 144 -80 126 -228 262 -352
324 -114 56 -280 110 -485 155 -69 16 -83 43 -54 103 19 39 20 39 89 45 344
31 590 253 680 614 82 329 -56 646 -344 791 -29 14 -55 32 -57 39 -5 13 10 84
26 120 12 28 30 101 40 160 4 28 13 63 19 78 6 16 11 49 11 75 0 26 7 82 15
125 19 101 19 240 0 303 -8 27 -15 59 -15 71 0 12 -7 39 -16 60 -28 64 -49
107 -56 118 -78 106 -110 144 -167 197 -63 57 -162 118 -218 133 -13 4 -23 13
-23 21 0 13 70 64 88 64 4 0 22 13 40 29 43 40 44 83 2 119 -50 44 -101 55
-284 61 l-168 6 -18 56 c-16 53 -44 117 -73 164 -56 93 -192 231 -259 263 -48
24 -104 35 -125 26z m-1410 -1270 c3 -3 -6 -24 -19 -46 -15 -24 -28 -62 -31
-92 -5 -49 -3 -54 22 -74 47 -37 114 -30 330 32 71 21 116 37 147 52 14 8 35
14 45 14 10 0 23 4 29 8 5 5 61 26 124 46 63 21 129 44 147 52 17 8 38 14 47
14 17 0 22 -25 7 -34 -19 -12 -51 -94 -51 -131 0 -56 22 -75 86 -75 29 0 65 5
81 11 15 6 46 14 68 19 49 10 112 33 180 66 29 13 55 24 58 24 3 0 51 27 105
60 56 34 111 60 126 60 55 0 202 -83 267 -151 67 -70 71 -86 70 -254 -1 -170
14 -278 54 -370 23 -55 37 -100 45 -145 4 -25 13 -61 19 -80 6 -19 11 -50 11
-68 0 -18 5 -42 10 -53 6 -10 15 -47 20 -82 33 -230 50 -289 90 -302 34 -11
52 3 130 96 98 119 149 163 210 183 77 25 141 17 230 -29 34 -18 120 -114 120
-135 0 -8 7 -24 15 -34 24 -32 21 -334 -4 -404 -10 -29 -23 -58 -30 -65 -6 -6
-11 -15 -11 -20 0 -14 -115 -159 -156 -198 -77 -71 -173 -109 -273 -109 -47 1
-61 5 -91 30 -72 62 -100 34 -164 -165 -27 -83 -53 -154 -57 -159 -5 -6 -9
-18 -9 -27 0 -21 -56 -149 -92 -212 -15 -26 -28 -50 -28 -53 0 -3 -25 -43 -55
-89 -65 -101 -211 -248 -315 -318 -77 -52 -226 -133 -270 -147 -14 -5 -50 -18
-80 -29 -210 -80 -482 -105 -705 -67 -136 24 -257 57 -312 85 -10 5 -54 26
-98 46 -71 34 -199 111 -232 140 -6 5 -26 21 -45 35 -69 51 -221 207 -263 270
-59 89 -128 259 -177 435 -36 129 -49 389 -55 1030 -3 416 -1 631 7 700 6 55
14 152 19 215 8 121 25 170 61 170 10 0 23 7 30 15 7 8 16 15 21 15 10 0 140
63 184 89 48 28 142 80 245 134 52 28 104 56 115 64 21 14 38 17 48 7z m-929
-1438 c10 -47 15 -475 6 -481 -13 -8 -50 31 -50 53 0 9 -7 35 -15 57 -8 22
-14 60 -15 84 0 24 -5 71 -11 105 -19 102 21 227 67 209 8 -3 16 -15 18 -27z
m2836 -1769 c0 -95 22 -242 46 -312 30 -87 28 -92 -128 -253 -240 -246 -321
-325 -567 -552 -62 -58 -124 -115 -138 -127 -13 -13 -56 -49 -96 -80 -40 -32
-78 -64 -85 -70 -7 -7 -41 -34 -75 -60 -34 -26 -63 -51 -65 -55 -10 -24 -49 6
-174 135 -77 78 -154 158 -171 177 -93 102 -149 217 -207 425 -15 51 -39 207
-43 278 -6 82 0 86 81 64 254 -70 533 -61 787 25 17 5 41 12 55 15 14 3 39 11
57 19 17 8 38 14 46 14 9 0 18 4 21 9 3 4 19 11 35 14 44 9 215 95 301 151 43
28 124 99 190 166 63 64 118 115 123 113 4 -2 7 -46 7 -96z"/>
<path d="M3160 9693 c-19 -9 -50 -23 -69 -32 -91 -43 -221 -218 -221 -298 0
-35 29 -72 58 -73 21 0 71 29 147 86 111 83 197 106 315 84 61 -12 130 2 155
30 37 40 14 121 -43 157 -15 10 -29 20 -32 23 -34 36 -248 52 -310 23z"/>
<path d="M4515 9685 c-75 -17 -121 -41 -165 -85 -50 -50 -55 -102 -15 -140 23
-22 34 -24 104 -23 42 1 90 7 105 13 15 5 48 10 73 10 69 0 101 -12 266 -97
69 -36 115 -41 152 -17 47 31 22 110 -62 197 -41 43 -125 107 -139 107 -4 0
-20 6 -37 14 -39 17 -152 37 -198 35 -19 -1 -56 -7 -84 -14z"/>
<path d="M4485 9051 c-22 -5 -56 -15 -76 -24 -50 -22 -143 -109 -168 -157 -29
-55 -28 -120 2 -148 50 -47 89 -38 197 42 78 58 95 66 148 72 49 6 67 0 192
-67 89 -47 154 -37 166 26 4 26 0 46 -16 77 -25 49 -75 105 -105 119 -11 5
-27 13 -35 17 -63 35 -89 42 -173 46 -51 3 -110 1 -132 -3z"/>
<path d="M3170 9039 c-8 -5 -26 -14 -40 -19 -46 -20 -72 -37 -117 -81 -55 -54
-83 -106 -83 -157 0 -83 52 -84 174 -2 83 56 93 60 145 60 62 0 101 -17 186
-81 82 -62 141 -51 164 29 21 72 -54 176 -166 231 -56 28 -71 31 -155 30 -51
0 -100 -4 -108 -10z"/>
<path d="M5955 8783 c-83 -52 -207 -191 -247 -273 -43 -90 -47 -175 -10 -220
27 -33 74 -36 107 -8 27 24 65 106 65 142 0 41 60 132 107 162 25 15 65 48 89
73 38 38 44 50 44 86 0 22 -5 46 -12 53 -21 21 -99 13 -143 -15z"/>
<path d="M3740 8672 c-75 -23 -112 -45 -160 -93 -60 -61 -81 -118 -82 -219 -1
-77 2 -90 27 -130 36 -59 72 -97 110 -116 56 -29 150 -54 201 -54 75 0 178 35
209 72 31 37 32 58 2 86 -21 20 -34 22 -121 22 -113 0 -164 18 -215 75 -33 38
-41 87 -20 128 17 33 61 66 87 67 38 0 102 39 113 67 14 38 2 77 -30 96 -35
20 -50 20 -121 -1z"/>
<path d="M4715 8093 c-11 -2 -54 -18 -95 -35 -148 -60 -240 -88 -288 -88 -17
0 -43 -5 -59 -11 -15 -6 -68 -15 -118 -20 -49 -4 -124 -13 -165 -18 -94 -13
-298 -13 -410 0 -47 5 -140 12 -206 15 l-122 7 -17 -27 c-75 -114 145 -478
370 -613 77 -46 159 -74 290 -98 110 -20 322 -16 403 8 209 63 487 287 577
464 47 96 64 162 65 255 0 83 -1 88 -30 117 -43 43 -121 61 -195 44z m-12
-259 c-3 -86 -112 -241 -238 -339 -90 -70 -259 -125 -384 -125 -73 0 -233 30
-297 55 -133 53 -216 125 -273 237 -52 102 -53 102 147 95 168 -7 308 1 502
27 148 21 286 45 316 56 14 6 38 10 54 10 15 0 43 7 61 15 19 8 52 14 74 12
l40 -2 -2 -41z"/>
<path d="M7165 5851 c-209 -62 -502 -276 -640 -466 -16 -22 -34 -44 -39 -50
-39 -36 -158 -246 -211 -370 -33 -78 -40 -92 -52 -125 -32 -84 -78 -228 -88
-280 -4 -19 -10 -39 -14 -45 -7 -12 -29 -102 -40 -171 -5 -28 -14 -61 -20 -72
-6 -11 -11 -36 -11 -55 0 -19 -7 -54 -15 -77 -8 -23 -15 -55 -15 -71 0 -15 -7
-54 -15 -86 -8 -31 -15 -73 -15 -93 0 -48 -14 -68 -37 -54 -23 14 -83 131 -83
162 0 13 -4 31 -9 41 -5 9 -15 81 -22 159 -10 112 -10 177 0 314 7 95 16 190
21 213 9 41 24 121 39 211 5 28 13 59 19 70 15 30 35 115 40 170 3 46 1 53
-24 73 -27 21 -27 21 -58 2 -40 -26 -113 -166 -151 -291 -9 -30 -21 -64 -25
-75 -13 -31 -31 -104 -40 -166 -5 -31 -14 -67 -19 -81 -5 -13 -12 -105 -15
-204 -14 -394 40 -594 225 -840 38 -50 69 -100 68 -110 0 -10 -8 -31 -17 -46
-139 -220 -152 -259 -152 -462 0 -134 -2 -153 -18 -166 -20 -16 -42 -32 -147
-105 -38 -26 -72 -51 -75 -55 -3 -3 -36 -31 -75 -62 -38 -31 -91 -76 -117
-101 -46 -45 -183 -220 -206 -264 -16 -30 -15 -68 3 -103 14 -27 20 -30 66
-30 l50 0 182 183 c100 101 202 197 227 213 25 16 47 31 50 35 4 5 29 21 133
83 90 53 272 141 382 184 92 35 120 44 160 51 23 4 46 11 53 15 7 4 37 12 65
17 29 4 77 13 107 19 30 6 80 16 110 22 30 6 136 13 235 15 151 4 186 8 218
24 32 17 37 24 37 54 0 73 -93 100 -345 100 -204 -1 -321 -17 -545 -76 -25 -7
-59 -18 -77 -25 -17 -8 -36 -14 -42 -14 -10 0 -32 -9 -127 -52 -22 -10 -46
-18 -52 -18 -19 0 -32 46 -32 113 0 153 40 220 295 500 59 64 115 123 124 130
10 6 53 44 97 84 101 92 288 232 349 263 6 3 50 31 98 64 121 80 150 131 107
186 -17 22 -26 25 -82 24 -73 -1 -105 -16 -248 -111 -156 -105 -236 -171 -418
-347 -75 -72 -106 -96 -114 -88 -12 12 7 150 49 357 14 66 29 143 34 170 5 28
14 59 19 70 4 11 11 40 15 65 3 24 10 49 14 55 5 5 11 26 14 45 2 19 9 49 15
65 24 72 34 102 42 130 23 81 127 307 178 387 9 14 30 48 46 75 16 26 32 50
35 53 4 3 18 23 32 45 88 134 339 332 571 449 105 53 131 83 109 125 -25 45
-84 52 -186 22z"/>
<path d="M1916 5464 c-31 -30 -37 -55 -47 -190 -17 -223 13 -871 56 -1229 17
-134 19 -221 7 -229 -15 -9 -185 218 -201 269 -5 17 -21 62 -34 100 -14 39
-32 97 -42 130 -9 33 -21 74 -27 90 -6 17 -13 43 -16 59 -2 16 -13 44 -23 61
-47 80 -114 67 -138 -27 -22 -86 5 -278 55 -395 8 -17 14 -34 14 -37 0 -7 67
-144 83 -171 14 -22 128 -177 136 -185 3 -3 28 -32 56 -65 27 -33 78 -90 112
-127 l63 -67 0 -93 c0 -51 7 -133 15 -183 8 -49 15 -149 15 -220 0 -72 4 -144
9 -160 15 -52 23 -219 11 -235 -9 -13 -16 -8 -45 25 -19 22 -35 45 -35 51 0
11 -100 126 -155 177 -139 132 -308 254 -425 308 -87 40 -113 48 -187 60 -66
10 -84 10 -108 -2 -37 -19 -49 -40 -41 -74 10 -41 53 -73 156 -117 50 -22 121
-57 158 -80 144 -87 314 -245 422 -391 33 -45 65 -87 70 -94 11 -13 53 -96 94
-184 51 -110 104 -149 201 -149 63 0 90 11 122 49 21 24 22 36 23 161 0 74 -5
152 -10 172 -6 20 -15 122 -20 225 -10 176 -16 256 -54 688 -8 94 -20 233 -26
310 -6 77 -17 205 -25 284 -8 79 -15 173 -15 210 0 36 -7 109 -15 161 -8 52
-15 129 -15 170 0 41 -7 120 -15 174 -8 55 -15 160 -15 235 0 75 -4 152 -10
171 -5 19 -13 91 -16 160 -4 78 -12 136 -22 155 -31 64 -64 81 -96 49z"/>
</g>
</svg>
